HIERARCHY
ROOT Hips
{
	OFFSET 0.000000 0.000000 0.000000 
	CHANNELS 6 Xposition Yposition Zposition Zrotation Yrotation Xrotation
	JOINT LeftUpLeg
	{
		OFFSET 1.363060 -1.794630 0.839290 
		CHANNELS 3 Zrotation Yrotation Xrotation
		JOINT LeftLeg
		{
			OFFSET 2.448110 -6.726130 0.000000 
			CHANNELS 3 Zrotation Yrotation Xrotation
			JOINT LeftFoot
			{
				OFFSET 2.562200 -7.039590 0.000000 
				CHANNELS 3 Zrotation Yrotation Xrotation
				JOINT LeftToeBase
				{
					OFFSET 0.157640 -0.433110 2.322550 
					CHANNELS 3 Zrotation Yrotation Xrotation
					End Site
					{
						OFFSET 0.000000 0.000000 0.000000 
					}
				}
			}
		}
	}
	JOINT RightUpLeg
	{
		OFFSET -1.305520 -1.794630 0.839290 
		CHANNELS 3 Zrotation Yrotation Xrotation
		JOINT RightLeg
		{
			OFFSET -2.542530 -6.985550 0.000000 
			CHANNELS 3 Zrotation Yrotation Xrotation
			JOINT RightFoot
			{
				OFFSET -2.568260 -7.056230 0.000000 
				CHANNELS 3 Zrotation Yrotation Xrotation
				JOINT RightToeBase
				{
					OFFSET -0.164730 -0.452590 2.363150 
					CHANNELS 3 Zrotation Yrotation Xrotation
					End Site
					{
						OFFSET 0.000000 0.000000 0.000000 
					}
				}
			}
		}
	}
	JOINT Spine
	{
		OFFSET 0.028270 2.035590 -0.193380 
		CHANNELS 3 Zrotation Yrotation Xrotation
		JOINT Spine1
		{
			OFFSET 0.056720 2.048850 -0.042750 
			CHANNELS 3 Zrotation Yrotation Xrotation
			JOINT Neck1
			{
				OFFSET -0.054170 1.746240 0.172020 
				CHANNELS 3 Zrotation Yrotation Xrotation
				JOINT Head
				{
					OFFSET 0.104070 1.761360 -0.123970 
					CHANNELS 3 Zrotation Yrotation Xrotation
					End Site
					{
						OFFSET 0.000000 0.000000 0.000000 
					}
				}
			}
			JOINT LeftArm
			{
				OFFSET 3.362410 1.200890 -0.311210 
				CHANNELS 3 Zrotation Yrotation Xrotation
				JOINT LeftForeArm
				{
					OFFSET 4.983000 -0.000000 -0.000000 
					CHANNELS 3 Zrotation Yrotation Xrotation
					JOINT LeftHand
					{
						OFFSET 3.483560 -0.000000 -0.000000 
						CHANNELS 3 Zrotation Yrotation Xrotation
						JOINT LeftHandIndex1
						{
							OFFSET 0.715260 -0.000000 -0.000000 
							CHANNELS 3 Zrotation Yrotation Xrotation
							End Site
							{
								OFFSET 0.000000 0.000000 0.000000 
							}
						}
					}
				}
			}
			JOINT RightArm
			{
				OFFSET -3.136600 1.374050 -0.404650 
				CHANNELS 3 Zrotation Yrotation Xrotation
				JOINT RightForeArm
				{
					OFFSET -5.241900 -0.000000 -0.000000 
					CHANNELS 3 Zrotation Yrotation Xrotation
					JOINT RightHand
					{
						OFFSET -3.444170 -0.000000 -0.000000 
						CHANNELS 3 Zrotation Yrotation Xrotation
						JOINT RightHandIndex1
						{
							OFFSET -0.622530 -0.000000 -0.000000 
							CHANNELS 3 Zrotation Yrotation Xrotation
							End Site
							{
								OFFSET 0.000000 0.000000 0.000000 
							}
						}
					}
				}
			}
		}
	}
}
MOTION
Frames: 6
Frame Time: 0.041667
-1.100307 14.925245 14.679401 2.373643 6.240208 5.903288 -6.379197 6.756604 -49.834988 18.730093 23.193768 78.791011 -4.000221 10.894757 5.634147 0.515000 -4.599900 -12.770800 8.118293 -2.174279 -51.032308 -19.074220 -24.920290 82.052689 3.757149 -10.562140 1.806541 -0.490800 4.491900 -12.464700 -2.060618 -28.958257 -17.923381 2.379530 17.536080 2.199306 5.775125 -4.234336 8.331780 2.174700 -1.914800 4.108600 58.855502 -37.456286 -141.747934 24.526448 -44.005768 -55.460081 -5.585939 -6.756077 36.525063 -7.125000 0.000000 0.000000 3.882589 27.971276 -28.278114 -43.325809 37.362468 -66.499194 0.609621 9.621135 21.119867 7.125000 0.000000 0.000000 
-1.102130 14.924333 14.679792 2.380439 6.248505 5.903658 -6.376417 6.750651 -49.833498 18.731143 23.195625 78.796956 -3.996479 10.888503 5.630638 0.514200 -4.596000 -12.759600 8.121558 -2.184221 -51.035075 -19.076823 -24.917243 82.063439 3.763473 -10.573325 1.794730 -0.492300 4.498700 -12.484200 -2.068525 -28.961446 -17.932042 2.380656 17.536193 2.203212 5.776727 -4.236486 8.334134 2.177800 -1.915900 4.109200 58.855702 -37.456107 -141.763864 24.524033 -44.006978 -55.462856 -5.593723 -6.757697 36.522502 -7.125000 0.000000 0.000000 3.868173 27.957929 -28.309673 -43.308293 37.370282 -66.505364 0.612154 9.623573 21.115895 7.125000 0.000000 0.000000 
-1.103953 14.923552 14.680182 2.392796 6.253166 5.909588 -6.373934 6.741820 -49.832289 18.731729 23.200025 78.803392 -3.992269 10.881476 5.624254 0.511300 -4.583600 -12.724600 8.120566 -2.190843 -51.037550 -19.079273 -24.913533 82.073506 3.767048 -10.580244 1.782314 -0.493300 4.503100 -12.496500 -2.101819 -28.960233 -17.961194 2.392029 17.537194 2.216162 5.781281 -4.239508 8.335849 2.183600 -1.917300 4.106500 58.856706 -37.457366 -141.783682 24.513155 -44.013170 -55.467349 -5.603492 -6.757944 36.523398 -7.125000 0.000000 0.000000 3.863464 27.950941 -28.332652 -43.296592 37.380626 -66.511169 0.614115 9.625156 21.112798 7.125000 0.000000 0.000000 
-1.105776 14.922250 14.680443 2.407046 6.253194 5.920191 -6.371469 6.732887 -49.836180 18.733586 23.206044 78.814632 -3.988859 10.875478 5.614373 0.508800 -4.572500 -12.693100 8.117230 -2.189930 -51.044793 -19.083607 -24.910922 82.090579 3.769378 -10.585087 1.765445 -0.494400 4.507900 -12.510200 -2.150410 -28.957821 -18.000109 2.410270 17.539758 2.234330 5.788533 -4.242424 8.336704 2.193100 -1.918500 4.101300 58.858190 -37.458558 -141.804609 24.498659 -44.023263 -55.477838 -5.610518 -6.758558 36.523981 -7.125000 0.000000 0.000000 3.863407 27.946641 -28.349815 -43.286953 37.391645 -66.516244 0.615664 9.626073 21.109329 7.125000 0.000000 0.000000 
-1.107339 14.920688 14.680573 2.426042 6.247476 5.937588 -6.370111 6.723442 -49.844622 18.736073 23.214434 78.828207 -3.991049 10.878159 5.600842 0.506600 -4.562700 -12.665500 8.109874 -2.182594 -51.055925 -19.088664 -24.908394 82.110042 3.769716 -10.586574 1.748069 -0.495300 4.512000 -12.521700 -2.224756 -28.951041 -18.058976 2.435854 17.544413 2.262253 5.797469 -4.246847 8.338171 2.201900 -1.920200 4.096800 58.861901 -37.461989 -141.825014 24.479896 -44.037248 -55.490893 -5.616467 -6.757893 36.524420 -7.125000 0.000000 0.000000 3.868762 27.946067 -28.359042 -43.278017 37.401619 -66.515770 0.618266 9.626795 21.107984 7.125000 0.000000 0.000000 
-1.108901 14.919255 14.680703 2.448163 6.239256 5.961440 -6.367439 6.710466 -49.855842 18.738902 23.225670 78.844011 -3.992041 10.878411 5.586700 0.504100 -4.551600 -12.634000 8.101086 -2.171491 -51.070638 -19.093836 -24.905389 82.130947 3.769894 -10.587751 1.728562 -0.495200 4.511900 -12.521500 -2.323031 -28.940447 -18.135454 2.469366 17.549912 2.298895 5.808559 -4.251174 8.340709 2.211500 -1.921900 4.093100 58.867800 -37.467311 -141.843636 24.458118 -44.053841 -55.506260 -5.619648 -6.757343 36.522396 -7.125000 0.000000 0.000000 3.879488 27.949063 -28.359988 -43.270314 37.411269 -66.511255 0.621484 9.627246 21.105604 7.125000 0.000000 0.000000 
